<svg width="322" height="76" viewBox="0 0 322 76" fill="none" xmlns="http://www.w3.org/2000/svg">
<path d="M16.6 74H0.700001V3.09999H46.4V18.1H16.5V33.1H42.8V47.5H16.6V74ZM71.6383 74H56.4383V24.3H71.6383V74ZM57.7383 15.4C56.0049 13.6667 55.1383 11.5667 55.1383 9.1C55.1383 6.63333 56.0049 4.53333 57.7383 2.8C59.4716 1.06666 61.5383 0.199996 63.9383 0.199996C66.4049 0.199996 68.5049 1.06666 70.2383 2.8C72.0383 4.53333 72.9383 6.63333 72.9383 9.1C72.9383 11.5667 72.0383 13.6667 70.2383 15.4C68.5049 17.1333 66.4049 18 63.9383 18C61.5383 18 59.4716 17.1333 57.7383 15.4ZM103.154 9.8V24.3H112.854V37.6H103.154V56.2C103.154 59.6667 104.987 61.4 108.654 61.4C109.854 61.4 111.187 61.2333 112.654 60.9V73.5C110.787 74.4333 108.154 74.9 104.754 74.9C99.6206 74.9 95.5539 73.4667 92.5539 70.6C89.6206 67.7333 88.1539 63.8333 88.1539 58.9V37.6H79.3539V24.3H81.8539C84.3872 24.3 86.2872 23.5667 87.5539 22.1C88.8872 20.5667 89.5539 18.6 89.5539 16.2V9.8H103.154ZM138.24 45.5V74H123.04V24.3H137.74V30C139.007 27.8 140.94 26.1 143.54 24.9C146.207 23.6333 148.907 23 151.64 23C157.573 23 162.073 24.8667 165.14 28.6C168.207 32.2667 169.74 37 169.74 42.8V74H154.54V45.4C154.54 42.8 153.84 40.7333 152.44 39.2C151.107 37.6 149.107 36.8 146.44 36.8C143.973 36.8 141.973 37.6333 140.44 39.3C138.973 40.9 138.24 42.9667 138.24 45.5ZM194.013 43.2H213.913C213.779 40.9333 212.879 38.9667 211.213 37.3C209.613 35.6333 207.179 34.8 203.913 34.8C200.979 34.8 198.646 35.6667 196.913 37.4C195.179 39.1333 194.213 41.0667 194.013 43.2ZM215.013 56.1L227.713 59.7C226.446 64.3 223.813 68.1 219.813 71.1C215.813 74.0333 210.813 75.5 204.813 75.5C197.613 75.5 191.479 73.1 186.413 68.3C181.413 63.5 178.913 57.0667 178.913 49C178.913 41.2667 181.346 34.9667 186.213 30.1C191.146 25.2333 196.979 22.8 203.713 22.8C211.446 22.8 217.513 25.0667 221.913 29.6C226.379 34.0667 228.612 40.3 228.612 48.3C228.612 50.8333 228.513 52.4 228.313 53H193.713C193.846 55.7333 195.013 58.0333 197.213 59.9C199.413 61.7 202.013 62.6 205.013 62.6C210.146 62.6 213.479 60.4333 215.013 56.1ZM234.272 59.9L247.172 57.6C247.305 59.4667 248.005 61.0667 249.272 62.4C250.605 63.6667 252.505 64.3 254.972 64.3C256.839 64.3 258.272 63.9 259.272 63.1C260.272 62.2333 260.772 61.2 260.772 60C260.772 58 259.139 56.6333 255.872 55.9L250.172 54.6C245.105 53.5333 241.372 51.6667 238.972 49C236.572 46.2667 235.372 43.0333 235.372 39.3C235.372 34.7 237.172 30.8 240.772 27.6C244.439 24.4 249.005 22.8 254.472 22.8C260.939 22.8 265.772 24.3667 268.972 27.5C272.239 30.5667 274.039 33.9333 274.372 37.6L261.772 39.9C261.572 38.1 260.872 36.6333 259.672 35.5C258.539 34.3667 256.872 33.8 254.672 33.8C253.205 33.8 251.939 34.2 250.872 35C249.805 35.8 249.272 36.8333 249.272 38.1C249.272 40.1 250.572 41.3333 253.172 41.8L259.772 43.1C264.772 44.1 268.572 46 271.172 48.8C273.772 51.6 275.072 54.9 275.072 58.7C275.072 63.3 273.339 67.2667 269.872 70.6C266.405 73.8667 261.539 75.5 255.272 75.5C251.605 75.5 248.339 74.9667 245.472 73.9C242.672 72.8333 240.505 71.4667 238.972 69.8C237.505 68.0667 236.372 66.3667 235.572 64.7C234.839 63.0333 234.405 61.4333 234.272 59.9ZM280.854 59.9L293.754 57.6C293.887 59.4667 294.587 61.0667 295.854 62.4C297.187 63.6667 299.087 64.3 301.554 64.3C303.421 64.3 304.854 63.9 305.854 63.1C306.854 62.2333 307.354 61.2 307.354 60C307.354 58 305.721 56.6333 302.454 55.9L296.754 54.6C291.687 53.5333 287.954 51.6667 285.554 49C283.154 46.2667 281.954 43.0333 281.954 39.3C281.954 34.7 283.754 30.8 287.354 27.6C291.021 24.4 295.587 22.8 301.054 22.8C307.521 22.8 312.354 24.3667 315.554 27.5C318.821 30.5667 320.621 33.9333 320.954 37.6L308.354 39.9C308.154 38.1 307.454 36.6333 306.254 35.5C305.121 34.3667 303.454 33.8 301.254 33.8C299.787 33.8 298.521 34.2 297.454 35C296.387 35.8 295.854 36.8333 295.854 38.1C295.854 40.1 297.154 41.3333 299.754 41.8L306.354 43.1C311.354 44.1 315.154 46 317.754 48.8C320.354 51.6 321.654 54.9 321.654 58.7C321.654 63.3 319.921 67.2667 316.454 70.6C312.987 73.8667 308.121 75.5 301.854 75.5C298.187 75.5 294.921 74.9667 292.054 73.9C289.254 72.8333 287.087 71.4667 285.554 69.8C284.087 68.0667 282.954 66.3667 282.154 64.7C281.421 63.0333 280.987 61.4333 280.854 59.9Z" fill="#313131"/>
</svg>
