<svg width="296" height="75" viewBox="0 0 296 75" fill="none" xmlns="http://www.w3.org/2000/svg">
<path d="M60.7 73H44.8V44.8H16.5V73H0.700001V2.09999H16.5V29.9H44.8V2.09999H60.7V73ZM86.0047 42.2H105.905C105.771 39.9333 104.871 37.9667 103.205 36.3C101.605 34.6333 99.1714 33.8 95.9047 33.8C92.9714 33.8 90.638 34.6667 88.9047 36.4C87.1714 38.1333 86.2047 40.0667 86.0047 42.2ZM107.005 55.1L119.705 58.7C118.438 63.3 115.805 67.1 111.805 70.1C107.805 73.0333 102.805 74.5 96.8047 74.5C89.6047 74.5 83.4714 72.1 78.4047 67.3C73.4047 62.5 70.9047 56.0667 70.9047 48C70.9047 40.2667 73.338 33.9667 78.2047 29.1C83.138 24.2333 88.9714 21.8 95.7047 21.8C103.438 21.8 109.505 24.0667 113.905 28.6C118.371 33.0667 120.605 39.3 120.605 47.3C120.605 49.8333 120.505 51.4 120.305 52H85.7047C85.838 54.7333 87.0047 57.0333 89.2047 58.9C91.4047 60.7 94.0047 61.6 97.0047 61.6C102.138 61.6 105.471 59.4333 107.005 55.1ZM127.364 59.3C127.364 55.1 128.731 51.7333 131.464 49.2C134.197 46.6 137.731 44.9667 142.064 44.3L153.764 42.5C156.164 42.1667 157.364 41.0333 157.364 39.1C157.364 37.5667 156.697 36.3 155.364 35.3C154.097 34.2333 152.331 33.7 150.064 33.7C147.531 33.7 145.497 34.4333 143.964 35.9C142.497 37.3 141.697 39 141.564 41L128.364 38.3C128.697 34.1667 130.731 30.4 134.464 27C138.264 23.5333 143.497 21.8 150.164 21.8C157.697 21.8 163.231 23.6 166.764 27.2C170.364 30.8 172.164 35.4 172.164 41V65.3C172.164 68.4333 172.364 71 172.764 73H159.064C158.731 71.6667 158.564 69.8 158.564 67.4C155.697 72.0667 151.031 74.4 144.564 74.4C139.297 74.4 135.097 72.9333 131.964 70C128.897 67 127.364 63.4333 127.364 59.3ZM148.264 63.4C150.864 63.4 153.031 62.6333 154.764 61.1C156.497 59.5667 157.364 57.0333 157.364 53.5V51.3L147.964 52.8C144.231 53.4 142.364 55.2333 142.364 58.3C142.364 59.7 142.831 60.9 143.764 61.9C144.764 62.9 146.264 63.4 148.264 63.4ZM200.154 73H184.954V0.599996H200.154V73ZM231.767 8.8V23.3H241.467V36.6H231.767V55.2C231.767 58.6667 233.601 60.4 237.267 60.4C238.467 60.4 239.801 60.2333 241.267 59.9V72.5C239.401 73.4333 236.767 73.9 233.367 73.9C228.234 73.9 224.167 72.4667 221.167 69.6C218.234 66.7333 216.767 62.8333 216.767 57.9V36.6H207.967V23.3H210.467C213.001 23.3 214.901 22.5667 216.167 21.1C217.501 19.5667 218.167 17.6 218.167 15.2V8.8H231.767ZM263.728 43.8V73H248.528V0.599996H263.728V26.5C266.728 23.5 270.961 22 276.428 22C282.628 22 287.295 23.8667 290.428 27.6C293.628 31.2667 295.228 36 295.228 41.8V73H280.028V44.4C280.028 41.8 279.328 39.7333 277.928 38.2C276.595 36.6 274.595 35.8 271.928 35.8C269.595 35.8 267.661 36.5667 266.128 38.1C264.661 39.5667 263.861 41.4667 263.728 43.8Z" fill="#313131"/>
</svg>
